<svg clip-rule="evenodd" fill-rule="evenodd" stroke-linejoin="round" stroke-miterlimit="2" viewBox="0 0 264 91" xmlns="http://www.w3.org/2000/svg"><g fill-rule="nonzero"><path d="m446.837 215.233v8.4h-3.565c-3.252 0-4.614 1.426-4.614 4.828v13.56h-9.184v-26.661h6.154l1.432 2.96c1.824-2.127 4.55-3.273 7.346-3.087zm3.127 15.346v-15.219h9.185v14.818c0 2.815 1.512 4.47 3.967 4.47s3.939-1.684 3.939-4.47v-14.818h9.185v15.219c0 7.461-5.247 12.321-13.124 12.321s-13.152-4.86-13.152-12.321zm81.308-15.247v26.668h-7.1l-.786-1.886c-2.278 1.832-5.123 2.818-8.046 2.788-8.154 0-13.983-5.948-13.983-14.236 0-8.258 5.828-14.136 13.983-14.136 2.967-.03 5.853.985 8.148 2.866l.94-2.063zm-8.737 13.353c-.061-3.232-2.737-5.857-5.969-5.857-3.275 0-5.97 2.695-5.97 5.97s2.695 5.97 5.97 5.97c.039.001.078.001.116.001 3.213 0 5.857-2.644 5.857-5.857 0-.076-.001-.151-.004-.227zm-23.035-6.251v-7.074h-6.7v-6.993h-5.787l-3.175 6.992h-4.872v7.074h4.881v10.067c0 5.926 3.584 9.53 9.481 9.53h4.724v-7.247c-3.551 0-5.021-1.95-5.021-3.86v-8.486zm36.759-15.941v35.533h9.185v-35.533zm-124.2 8.035c-2.337-.018-4.633.618-6.626 1.838v-9.923h-9.08v35.583h6.8l.865-1.98c2.258 1.874 5.11 2.886 8.044 2.854 8.211 0 14.011-5.9 14.011-14.187s-5.807-14.185-14.017-14.185zm-1.229 20.239c-.033.001-.066.001-.099.001-3.329 0-6.068-2.739-6.068-6.068s2.739-6.068 6.068-6.068 6.068 2.739 6.068 6.068v.013c.002.066.003.132.003.198 0 3.213-2.644 5.857-5.857 5.857-.039 0-.079 0-.118-.001zm144.12 7.577c2.578 0 4.7-2.122 4.7-4.7s-2.122-4.7-4.7-4.7-4.7 2.122-4.7 4.7c0 2.577 2.12 4.698 4.697 4.7z" fill="#003267" transform="translate(-295.998 -188.105)"/><path d="m215.766 205.261c-2.315 1.839-3.667 4.639-3.667 7.596 0 5.321 4.379 9.7 9.7 9.7s9.7-4.379 9.7-9.7c0-2.957-1.352-5.757-3.667-7.596-2.318-1.839-3.673-4.641-3.673-7.6s1.355-5.761 3.673-7.6c2.315-1.839 3.666-4.639 3.666-7.595 0-5.321-4.378-9.7-9.7-9.7-5.321 0-9.699 4.379-9.699 9.7 0 2.956 1.351 5.756 3.666 7.595 2.318 1.839 3.673 4.641 3.673 7.6s-1.355 5.761-3.673 7.6z" fill="#e03248" transform="translate(-212.099 -172.766)"/><path d="m286.873 227c.362 2.435 1.638 4.643 3.566 6.174 2.318 1.839 3.673 4.641 3.673 7.6s-1.355 5.761-3.673 7.6c-2.315 1.839-3.667 4.639-3.667 7.596 0 5.321 4.379 9.7 9.7 9.7s9.7-4.379 9.7-9.7c0-2.957-1.352-5.757-3.667-7.596-2.317-1.84-3.67-4.642-3.67-7.6s1.353-5.76 3.67-7.6c2.327-1.838 3.687-4.646 3.687-7.612 0-5.321-4.378-9.7-9.7-9.7-1.228 0-2.446.234-3.587.688-1.135.448-2.344.678-3.564.678-4.788 0-8.896-3.542-9.6-8.278-.704-4.733-4.81-8.273-9.595-8.273-5.321 0-9.7 4.378-9.7 9.7 0 5.321 4.379 9.7 9.7 9.7 1.22 0 2.428-.23 3.562-.678 1.135-.448 2.344-.679 3.565-.679 4.787 0 8.894 3.544 9.595 8.279z" fill="#003267" transform="translate(-234.114 -185.474)"/></g><circle cx="36.04" cy="85.697" fill="#009a9b" r="4.852"/><circle cx="9.703" cy="70.497" fill="#ee95a3" r="7.278"/></svg>